PathFileType	4	(X/Y/Z)	TVC_60_BWA02_walk_RCNL2025.trc
DataRate	CameraRate	NumFrames	NumMarkers	Units	OrigDataRate	OrigDataStartFrame	OrigNumFrames
100	100	11	27	mm	100	173	276
Frame#	Time	R_Shoulder			L_Shoulder			C7			J_Notch			R_Elbow			L_Elbow			R_Wrist			L_Wrist			R_Asis			L_Asis			R_Psis			L_Psis			Sacral			Thoracic			Sternum			R_Thigh_Lateral			R_Knee_Lateral			R_Shank_Lateral			R_Ankle_Lateral			R_Heel			R_Toe			L_Thigh_Lateral			L_Knee_Lateral			L_Shank_Lateral			L_Ankle_Lateral			L_Heel			L_Toe		
		X1	Y1	Z1	X2	Y2	Z2	X3	Y3	Z3	X4	Y4	Z4	X5	Y5	Z5	X6	Y6	Z6	X7	Y7	Z7	X8	Y8	Z8	X9	Y9	Z9	X10	Y10	Z10	X11	Y11	Z11	X12	Y12	Z12	X13	Y13	Z13	X14	Y14	Z14	X15	Y15	Z15	X16	Y16	Z16	X17	Y17	Z17	X18	Y18	Z18	X19	Y19	Z19	X20	Y20	Z20	X21	Y21	Z21	X22	Y22	Z22	X23	Y23	Z23	X24	Y24	Z24	X25	Y25	Z25	X26	Y26	Z26	X27	Y27	Z27
173	1.72000000	504.210632	1308.315063	-66.208092	460.270264	1344.332520	-412.865723	430.802643	1393.519287	-231.505783	535.861633	1261.229370	-251.150238	528.205994	986.729492	38.014389	369.639557	1009.309998	-462.871124	671.632446	796.241333	38.137646	430.742844	789.007385	-523.695587	515.267883	904.949158	-106.972252	511.116913	908.676758	-393.776764	335.788361	902.490112	-189.344925	334.750275	898.422668	-299.626526	335.269318	900.456390	-244.485725	367.643921	1186.015747	-239.457611	563.346985	1068.824829	-247.966812	447.044617	582.543152	-54.663486	422.220184	431.008514	-140.812241	351.747437	220.482498	-123.430305	288.149475	64.789162	-208.560791	246.291443	68.078072	-257.396545	414.955902	40.848221	-216.072693	545.629761	633.130432	-458.301849	634.575439	467.541382	-382.127045	671.001282	282.039429	-423.287781	720.234009	80.031944	-356.690338	672.597595	68.907028	-317.080566	847.383484	92.992615	-335.439819
174	1.73000000	511.079163	1306.893188	-66.057922	468.911530	1343.252686	-412.923370	438.475952	1392.278687	-231.627823	543.720032	1260.011108	-250.881134	538.444946	985.533691	37.667137	377.686584	1008.446045	-463.139679	684.514435	796.974884	36.474244	438.267456	788.008728	-523.942169	522.417908	903.916016	-106.884674	519.716003	907.025513	-393.989655	343.431824	901.279663	-190.418945	343.026917	896.961365	-300.595337	343.229370	899.120514	-245.507141	375.489716	1184.751221	-240.235626	571.207092	1067.545044	-247.544525	451.806732	581.796265	-54.800293	425.308899	430.627838	-140.811844	352.539551	220.827606	-123.494392	288.287598	65.390213	-208.838776	246.624435	68.979279	-257.730804	414.988953	40.828503	-216.033432	551.216675	630.374084	-458.876129	642.530701	466.052338	-382.176910	683.844849	281.329712	-422.396912	739.032715	80.822174	-354.678894	691.738037	68.777695	-315.023834	866.225098	96.867912	-333.332947
175	1.74000000	518.021301	1305.452271	-65.977760	477.651672	1342.154053	-413.053558	446.235992	1391.019043	-231.826004	551.673035	1258.781860	-250.681046	548.527039	984.329346	37.262466	385.882996	1007.554626	-463.483887	697.086670	797.633881	34.841930	445.893631	786.957947	-524.215515	529.742554	902.875854	-106.868179	528.359802	905.354065	-394.272156	351.215607	900.066528	-191.509109	351.415588	895.484192	-301.572113	351.315598	897.775360	-246.540611	383.452148	1183.457642	-241.071960	579.159485	1066.251709	-247.205063	456.715454	581.149231	-54.955563	428.620605	430.261261	-140.822510	353.482635	221.246902	-123.597694	288.492798	66.080307	-209.101227	247.006348	69.999496	-258.034821	415.034760	40.810032	-215.992722	557.222290	627.711182	-459.289337	650.754517	464.666992	-382.128967	695.925354	280.619385	-421.449829	756.076782	81.555290	-352.692200	709.213135	68.803841	-312.850372	883.309692	100.208488	-331.728485
176	1.75000000	525.051331	1304.006226	-65.973587	486.482147	1341.046143	-413.259155	454.085724	1389.750244	-232.101440	559.724121	1257.554688	-250.557297	558.450500	983.123535	36.802284	394.225494	1006.642334	-463.901276	709.339050	798.210266	33.245126	453.626266	785.864075	-524.515717	537.257080	901.835693	-106.922676	537.060913	903.682678	-394.620667	359.151703	898.860107	-192.612640	359.925964	894.003967	-302.555817	359.538834	896.432037	-247.584229	391.536377	1182.144409	-241.960953	587.213928	1064.959839	-246.956253	461.799561	580.608276	-55.115234	432.179077	429.910034	-140.840134	354.609741	221.746124	-123.725800	288.777405	66.879150	-209.329834	247.445847	71.163757	-258.289948	415.098999	40.795368	-215.952332	563.785889	625.211548	-459.526947	659.278687	463.395538	-381.990021	707.228088	279.856262	-420.458374	771.317566	82.096016	-350.746552	724.948914	68.857025	-310.590576	898.597290	102.852554	-330.606110
177	1.76000000	532.183228	1302.569580	-66.050728	495.394012	1339.938232	-413.542542	462.027649	1388.482300	-232.454773	567.876526	1256.342529	-250.516693	568.214111	981.923584	36.288261	402.710144	1005.715454	-464.389008	721.261871	798.696381	31.687731	461.470490	784.736511	-524.843384	544.975647	900.802612	-107.047173	545.834412	902.030518	-395.030426	367.252075	897.668640	-193.726852	368.568024	892.533020	-303.545776	367.910049	895.100830	-248.636314	399.746857	1180.820923	-242.896591	595.380676	1063.684326	-246.804794	467.083740	580.175842	-55.263775	436.006104	429.575287	-140.859314	355.950409	222.329361	-123.861420	289.147888	67.807053	-209.505920	247.950577	72.496048	-258.478088	415.186249	40.787891	-215.912262	570.992249	622.926819	-459.597321	668.117188	462.234619	-381.774567	717.761719	278.991486	-419.436859	784.749817	82.328773	-348.856171	738.908264	68.821785	-308.284424	912.083557	104.664398	-329.901489
178	1.77000000	539.430847	1301.156616	-66.213745	504.378082	1338.839478	-413.905701	470.063812	1387.225586	-232.886093	576.133240	1255.158447	-250.565369	577.817139	980.737305	35.721802	411.332520	1004.780334	-464.943787	732.846100	799.085083	30.173129	469.431458	783.585144	-525.199463	552.911255	899.783630	-107.239998	554.697021	900.415283	-395.495453	375.528290	896.499329	-194.849060	377.351593	891.082947	-304.541534	376.439941	893.791138	-249.695297	408.087402	1179.496704	-243.872559	603.670044	1062.439819	-246.756042	472.588135	579.850952	-55.386143	440.120819	429.258057	-140.873627	357.530487	222.999527	-123.986717	289.606232	68.883156	-209.612106	248.527771	74.018295	-258.582947	415.299927	40.791386	-215.870605	578.864014	620.884827	-459.530212	677.264771	461.168671	-381.502106	727.558899	277.983856	-418.400848	796.412842	82.165031	-347.033691	751.094666	68.602615	-305.979980	923.803101	105.543297	-329.511841
179	1.78000000	546.807251	1299.781860	-66.466263	513.424988	1337.758545	-414.349884	478.195709	1385.990112	-233.394943	584.496704	1254.014893	-250.708572	587.259460	979.572449	35.104053	420.087738	1003.843079	-465.561951	744.083344	799.369843	28.704203	477.514420	782.419800	-525.585388	561.075500	898.785706	-107.498970	563.666260	898.853088	-396.008911	383.991333	895.358459	-195.976379	386.285736	889.664856	-305.542633	385.138535	892.511658	-250.759506	416.560913	1178.181396	-244.882248	612.092163	1061.240723	-246.813980	478.327789	579.629883	-55.469734	444.539490	428.959106	-140.875824	359.371277	223.758591	-124.085144	290.152771	70.123611	-209.633621	249.184875	75.749031	-258.590363	415.442078	40.809490	-215.823425	587.364502	619.086548	-459.371765	686.697144	460.171844	-381.194275	736.676147	276.803375	-417.365875	806.389099	81.548729	-345.290222	761.554321	68.129753	-303.729950	933.830811	105.429344	-329.306763
180	1.79000000	554.324829	1298.459106	-66.810875	522.525452	1336.703735	-414.875702	486.424286	1384.785889	-233.980164	592.968811	1252.924316	-250.950562	596.541199	978.436890	34.435909	428.970734	1002.909790	-466.239532	754.965668	799.544678	27.283347	485.724640	781.250610	-526.002808	569.478516	897.815430	-107.821785	572.759583	897.358459	-396.563416	392.650940	894.251465	-197.105560	395.378326	888.289490	-306.548615	394.014633	891.270477	-251.827087	425.169342	1176.884644	-245.918808	620.656555	1060.100708	-246.981171	484.312439	579.505920	-55.505905	449.275879	428.678802	-140.858276	361.488159	224.607727	-124.142212	290.788635	71.540070	-209.558701	249.928909	77.702286	-258.487946	415.613831	40.844994	-215.765030	596.412964	617.510437	-459.175079	696.373596	459.211853	-380.872223	745.191467	275.434143	-416.345917	814.800659	80.459137	-343.635132	770.375427	67.363663	-301.587036	942.280334	104.305855	-329.142242
181	1.80000000	561.995056	1297.201904	-67.249008	531.670227	1335.682861	-415.482971	494.749908	1383.622437	-234.639954	601.550964	1251.898193	-251.294434	605.662964	977.338440	33.718018	437.976288	1001.986267	-466.972260	765.485901	799.604431	25.912494	494.067307	780.087677	-526.453613	578.128723	896.879028	-108.206261	581.993103	895.944458	-397.151337	401.515411	893.183167	-198.232788	404.635345	886.967346	-307.558624	403.075378	890.075256	-252.895706	433.913452	1175.615845	-246.975220	629.371826	1059.032959	-247.258789	490.546600	579.469238	-55.491112	454.341888	428.416870	-140.813263	363.889008	225.547272	-124.145454	291.516724	73.139320	-209.378189	250.765991	79.887512	-258.264313	415.815857	40.899113	-215.688675	605.906494	616.120361	-458.989349	706.241577	458.254822	-380.554535	753.199829	273.875519	-415.351898	821.802429	78.910980	-342.075226	777.684937	66.297737	-299.598419	949.300537	102.198555	-328.876892
182	1.81000000	569.828308	1296.023071	-67.780876	540.850220	1334.703613	-416.170441	503.172394	1382.509155	-235.371719	610.243591	1250.947266	-251.742020	614.625732	976.284790	32.950809	447.099030	1001.078308	-467.755646	775.637482	799.544800	24.593135	502.547485	778.941101	-526.939880	587.032471	895.982056	-108.650749	591.380493	894.622925	-397.765503	410.590881	892.158081	-199.353409	414.060272	885.708801	-308.571259	412.325577	888.933441	-253.962334	442.792847	1174.384644	-248.044357	638.245056	1058.050049	-247.646683	497.031342	579.506897	-55.427696	459.748688	428.172333	-140.733322	366.574371	226.577164	-124.084312	292.341248	74.924316	-209.084366	251.701263	82.310127	-257.908875	416.049042	40.970978	-215.587585	615.737671	614.873535	-458.851837	716.242554	457.270203	-380.255859	760.807983	272.142334	-414.390594	827.574524	76.952370	-340.614014	783.643066	64.958549	-297.800751	955.069031	99.172371	-328.387421
183	1.82000000	577.833557	1294.934814	-68.405418	550.056824	1333.773193	-416.936005	511.690979	1381.454956	-236.172180	619.046448	1250.081543	-252.293747	623.430725	975.283386	32.134510	456.333710	1000.191589	-468.585083	785.414398	799.362396	23.326361	511.170074	777.820801	-527.463593	596.193909	895.129395	-109.154373	600.931519	893.404968	-398.399445	419.880890	891.180725	-200.461838	423.653595	884.524658	-309.584290	421.767242	887.852692	-255.023064	451.805725	1173.200317	-249.119019	647.281555	1057.163208	-248.143494	503.767120	579.603760	-55.323944	465.508087	427.943024	-140.611435	369.539978	227.698303	-123.949272	293.267975	76.895699	-208.669785	252.739609	84.972412	-257.411499	416.315186	41.057316	-215.456039	625.810364	613.730408	-458.779877	726.318237	456.236115	-379.986115	768.128174	270.263824	-413.464203	832.312805	74.660835	-339.251495	788.435486	63.403069	-296.217194	959.783569	95.326920	-327.581329
